<svg xmlns="http://www.w3.org/2000/svg" xmlns:xlink="http://www.w3.org/1999/xlink" viewBox="0 0 484.34 359.67"><defs><style>.cls-1{fill:url(#linear-gradient);}.cls-2{fill:none;}.cls-3{clip-path:url(#clip-path);}.cls-4{fill:url(#linear-gradient-2);}.cls-5{fill:#fff;}.cls-6{fill:#c4c3c3;}.cls-7{fill:#dddddc;}.cls-8{mask:url(#mask);}.cls-9{fill:#d4d6d7;}.cls-10{fill:#e2e2e2;}.cls-11{fill:url(#linear-gradient-3);}.cls-12{fill:#d3d3d3;}.cls-13{fill:url(#linear-gradient-4);}</style><linearGradient id="linear-gradient" x1="-316.24" y1="206.26" x2="-316.24" y2="-216.13" gradientUnits="userSpaceOnUse"><stop offset="0" stop-color="#fff"/><stop offset="1" stop-color="#3c3b3d"/></linearGradient><clipPath id="clip-path" transform="translate(560 240)"><rect id="Background" class="cls-2" x="-555.99" y="-240" width="480.33" height="359.67"/></clipPath><linearGradient id="linear-gradient-2" x1="244.17" y1="359.23" x2="244.17" y2="1.23" gradientUnits="userSpaceOnUse"><stop offset="0" stop-color="#ffd884"/><stop offset="1" stop-color="#ee545c"/></linearGradient><mask id="mask" x="0" y="22.42" width="482.34" height="424.36" maskUnits="userSpaceOnUse"><g transform="translate(560 240)"><rect class="cls-1" x="-554.81" y="-217.58" width="477.15" height="424.36"/></g></mask><linearGradient id="linear-gradient-3" x1="-222.78" y1="2.9" x2="-182.65" y2="-28.18" gradientUnits="userSpaceOnUse"><stop offset="0" stop-color="#fff"/><stop offset="1" stop-color="#e0e0e0"/></linearGradient><linearGradient id="linear-gradient-4" x1="-234.38" y1="35.2" x2="-186.61" y2="-5.29" xlink:href="#linear-gradient-3"/></defs><title>cavemanbg</title><g id="Layer_2" data-name="Layer 2"><g id="Layer_1-2" data-name="Layer 1"><g class="cls-3"><rect id="Background-2" data-name="Background" class="cls-4" x="4.01" width="480.33" height="359.67"/><path class="cls-5" d="M-476.85,63.28c-2.79,9.28-8.11,7.11-18.11,7.11s-10.85,1.9-18.1-7.11c-6.27-7.79.25-21.4,10.25-21.4S-474,53.71-476.85,63.28Z" transform="translate(560 240)"/><path class="cls-6" d="M-476.85,63.28c-2.79,9.28-8.11,7.11-18.11,7.11,0,0,15.36-9.9,4.18-22-6-6.53-20-5.94-12-6.49C-492.83,41.18-474,53.71-476.85,63.28Z" transform="translate(560 240)"/><path class="cls-7" d="M-502.59,45.87a2.8,2.8,0,0,1-.14,3.91,2.8,2.8,0,0,1-3.86.66c-1-.89-2-3.64-.85-4.9S-503.61,45-502.59,45.87Z" transform="translate(560 240)"/><path class="cls-7" d="M-501.33,51.67a1.25,1.25,0,0,1,.1,1.76,2.8,2.8,0,0,1-2.76.13c-.51-.45.45-1.23.91-1.76A1.24,1.24,0,0,1-501.33,51.67Z" transform="translate(560 240)"/><path class="cls-5" d="M-497.08,70.29c-1.25,5.48-3.64,4.19-8.12,4.19s-4.87,1.13-8.13-4.19c-2.81-4.59.12-12.62,4.61-12.62S-495.79,64.65-497.08,70.29Z" transform="translate(560 240)"/><path class="cls-7" d="M-497.08,70.29c-1.25,5.48-3.64,4.19-8.12,4.19,0,0,7.28-6.35,1.87-13-3.28-4-9.88-3.83-5.39-3.83S-495.79,64.65-497.08,70.29Z" transform="translate(560 240)"/><path class="cls-7" d="M-511.73,63.84a2.35,2.35,0,0,1,.25,2.3c-.39.44-1.22-.33-1.65-.7a1.06,1.06,0,0,1-.08-1.49A1,1,0,0,1-511.73,63.84Z" transform="translate(560 240)"/><g class="cls-8"><path class="cls-5" d="M-202.39-69.35c-5-4.38-9.48-9.57-15.4-12.81-8.3-4.55-7.83,5-16.31.81-14.47-7.2-22.87-4.9-35.92-17-11.66-5.77-33-13.76-28.49-39.59-7.38-8.18-23.81-10.77-24.73-12.78-3.35-7.28-9.21-1.8-12.81-9-.57-1.12-.85-3-2.5-2.64-4.1.81-4.64,14.67-7.34,17.76-4.07,4.66-12.49-4-16.6.66-10.82,12.2-17,8.48-28.07,20.48-1.11,1.2-6,14.93-8.1,16l1.68,1.84-2.89-2.34c-7-4.57-14.14-8.87-21.2-13.31-4.1-2.57-8.51-4.82-12.14-7.94-12.25-10.54-15.36,12.32-27.55,1.71-1.92-1.67-4.82-6.93-7.49-7.75-5.66-1.74-.14-7-6-8.27-1.37-.3-20.3.72-20.9-.5-3-6-6.24-11.9-8.82-18.08-3.42-8.2,1.66-3.63-4.07-10.37-2.62-3.08-12.52-5.47-15.24-2.58s-12.92-2.66-15,.52c-6.33,9.68-4.54,19.22-9.9,29.46-2.9,5.54-4.53,11.88-10.05,15.75-1.64,1.14-1.51,2.92-1.51,4.66,0,14.93,0-1.16,0,13.76,8.82,3.54,17.05,8.28,25.54,12.5a82.21,82.21,0,0,1,17.66,11.82c3.71,3.25,8.54,4.18,13,5.44,5.47,1.55,10.37,3.47,14.34,7.69,4.5,4.78,10.55,6.27,16.79,6.76,12.39,1,23.94,4.71,35,10.23a10.73,10.73,0,0,0,5.75,1c13-1,25.75,1.48,38.28,4.26,9.21,2.05,18.1,5.6,27,8.89,4.64,1.72,6.56,6.69,9.92,10,3.07,3,5.66,6.56,8.46,9.87,3.53.58,6.65-1.29,10-1.71a16.33,16.33,0,0,1,8,.87c15.65,5.83,31.33,11.6,47.63,15.44a72.5,72.5,0,0,1,34.68,5.47A42.4,42.4,0,0,0-228.78.92,94.19,94.19,0,0,1-194.94,5c3-4.24,4.25-9.26,6.33-13.9,5-11.27,12.3-21.14,19-31.41C-180.56-50-191.38-59.79-202.39-69.35Z" transform="translate(560 240)"/><path class="cls-9" d="M-559.73-110.9c8.82,3.54,17.05,8.28,25.54,12.5a82.21,82.21,0,0,1,17.66,11.82c3.71,3.25,8.54,4.18,13,5.44,5.47,1.55,10.37,3.47,14.34,7.69,4.5,4.78,10.55,6.27,16.79,6.76,12.39,1,23.94,4.71,35,10.23a10.73,10.73,0,0,0,5.75,1c13-1,25.75,1.48,38.28,4.26,9.21,2.05,18.1,5.6,27,8.89,4.64,1.72,6.56,6.69,9.92,10,3.07,3,5.66,6.56,8.46,9.87-8.93-.63-17.88-1.14-26.8-1.94-2.87-.26-4.89.13-5.68,3.19s-2.43,3.71-5.12,2.1a18.07,18.07,0,0,0-2.55-1.08c-14.21-5.83-14.23-5.87-28.14,1-2.05,1-3.75,1.31-5.87.21C-434-25-446.58-27.54-459.72-28.78c-11.25-1-22.62-1.79-33.65-4.62-8.94-2.28-17.88-4.58-26.75-7.09a7.21,7.21,0,0,0-5.92.77c-11.14,6-22.33,11.89-33.51,17.81-.06-11.33-.16-22.67-.18-34Q-559.77-83.4-559.73-110.9Z" transform="translate(560 240)"/><path class="cls-10" d="M-559.55-21.91c11.18-5.92,22.37-11.81,33.51-17.81a7.21,7.21,0,0,1,5.92-.77c8.87,2.51,16.4-6.56,25.33-4.27,11,2.83,23.82,14.93,35.07,16,13.14,1.24,25.75,3.81,37.51,9.87,2.12,1.1,3.82.81,5.87-.21,13.91-6.9,10.46-30.27,24.67-24.44a18.07,18.07,0,0,1,2.55,1.08c2.69,1.61,4.36.89,5.12-2.1s2.81-3.45,5.68-3.2c8.92.81,4.19,16.14,13.13,16.76,3.52.58,6.64-1.29,10-1.7a16.31,16.31,0,0,1,8.05.86C-331.47-26-282-49.16-265.67-45.32c25.43,7.26,33.79,53.25,58.75,62l-.75,1.64c-7.13.56-14.16,2.25-21.43.88-4.28-.8-.54,1.94-.68,3l-14.53,2.43c-1.06-1.19-2.47-.66-3.73-.67-6.86,0-13.73-.14-20.59,0a25.42,25.42,0,0,1-10-1.9c-6.63-2.56-13.26-5.1-19.87-7.7-10.16-4-20.83-6.91-30.26-12.39-11.35-6.58-23.14-11-36.22-12.3-3.3-.32-6.51-1-9.71.18C-387-5.48-399.55-7.33-412-9.27A96.34,96.34,0,0,0-443.67-9c-10.83,1.88-21.66,4.26-32.74,4.31-4.64,0-6.19,6.59-10.56,8.62-10.24,4.74-23.51,2.85-33.92,7.24-13-1.15-25.83-2.89-38.7-4.69Z" transform="translate(560 240)"/><path class="cls-10" d="M-187.45,1.85c-4.35.77-8.93,1.21-12.94,2.41.49,1.08,2.41,1.22,3.43,2.13-6.31,1.13-12.5,2.32-18.37,3.89a51.61,51.61,0,0,0-10.08,3.5c-1.31.67-2.85,1.34-1.74,2.52s3,.34,4.45.39c-4.48,4.41-10.41-6.05-18.89-5.66-11-.24,4.18,16.09-6.72,17.06-10-1.91-32.4-4.93-36.7-4.66-10.28.65-25,.74-35.26.55-22.57-.42-32.18,2.85-54.75,2.77-2.92,0-18.32,1.14-21.24,1-13.83-5.78-33.39,4.27-49.77.79C-468.47,23.74-537.27,33-559.55,28c-1.57-.35,1.61-37.08,0-37.42,12.28-2.73,64.39-3.48,76.48-6.43,5.16-1.26,24.25-3.88,29.73-3.9,13.07,0,17.81,1.88,30.59.71a214.72,214.72,0,0,1,37.35-.14c14.71,1.2,29.49,2.35,44.06-.56,3.77-.75,7.55-.31,11.45-.11a173.64,173.64,0,0,1,42.74,7.64C-276-8.8-263.39-7-251.41-4.5q11.72,2.42,23.46,4.78a54.48,54.48,0,0,0,11.8,1.18c8.1-.11,16.2,0,24.3,0C-190.37,1.44-188.71,1.12-187.45,1.85Z" transform="translate(560 240)"/></g><path class="cls-11" d="M-171.39,13.72c-6.82,22.73-19.85,17.4-44.34,17.4s-26.58,4.67-44.34-17.4c-15.35-19.08.63-52.43,25.12-52.43S-164.34-9.73-171.39,13.72Z" transform="translate(560 240)"/><path class="cls-7" d="M-234.41-28.93c2.51,2.2,6.57,5.59,4.33,8.15s-9.94,3.32-12.44,1.13a6.1,6.1,0,0,1-.49-8.61A6.11,6.11,0,0,1-234.41-28.93Z" transform="translate(560 240)"/><path class="cls-7" d="M-249.27-10.24c1.25,1.1,1.58,5.43.46,6.71s-3.27-1-4.52-2.07a3.06,3.06,0,0,1-.24-4.31A3,3,0,0,1-249.27-10.24Z" transform="translate(560 240)"/><path class="cls-12" d="M-237.34,31.28c3.92.48,8.49.14,14.9-.05q-3.09-.11-6.46-.11C-232.06,31.12-234.85,31.2-237.34,31.28Zm2.39-70a26.83,26.83,0,0,0-6,.7c25.27,4.55,62.78,30.42,56.38,51.73-3.94,13.1-9.93,16.87-19,17.72,16.81.69,26.57.9,32.16-17.72C-164.34-9.73-210.46-38.71-234.95-38.71Z" transform="translate(560 240)"/><path class="cls-13" d="M-210.79,31.59c-2.2,9.62-6.51,8.75-14.28,7.37-15.77-2.81-14.73-1.7-15.64-11.43-.93-10,4.52-12.11,12.41-12.11S-208.52,21.66-210.79,31.59Z" transform="translate(560 240)"/><path class="cls-7" d="M-210.79,31.59c-3.11,12.47-7.09,8.4-14.28,7.37,0,0,18.77-4.06,4.55-19.95-6.08-6.8-11.14-3.59-3.26-3.59S-208.32,21.71-210.79,31.59Z" transform="translate(560 240)"/><path class="cls-5" d="M-194.94,35.65c-1.44,6.3-4.27,5.73-9.36,4.83-10.35-1.85-9.66-1.11-10.25-7.5-.62-6.56,3-7.94,8.13-7.94S-193.45,29.13-194.94,35.65Z" transform="translate(560 240)"/><path class="cls-7" d="M-194.94,35.65c-2,8.17-4.65,5.5-9.36,4.83,0,0,12.31-2.66,3-13.08-4-4.46-7.31-2.36-2.13-2.36S-193.32,29.17-194.94,35.65Z" transform="translate(560 240)"/><path class="cls-5" d="M-194.95,41.67c-.7,1.62-2.1,1.48-4.6,1.24-5.09-.47-4.75-.28-5-1.92s1.45-2,4-2S-194.21,40-194.95,41.67Z" transform="translate(560 240)"/><path class="cls-7" d="M-194.95,41.67c-1,2.1-2.28,1.42-4.6,1.24,0,0,6.05-.68,1.47-3.36-2-1.15-3.6-.6-1-.6S-194.15,40-194.95,41.67Z" transform="translate(560 240)"/><path class="cls-5" d="M-209.7,40.91c-.4.91-1.18.83-2.58.7-2.84-.27-2.65-.16-2.81-1.08s.81-1.14,2.23-1.14S-209.3,40-209.7,40.91Z" transform="translate(560 240)"/><path class="cls-7" d="M-209.7,40.91c-.57,1.18-1.28.8-2.58.7,0,0,3.38-.38.82-1.88-1.09-.64-2-.34-.58-.34S-209.26,40-209.7,40.91Z" transform="translate(560 240)"/><path class="cls-5" d="M-213.22,41.37c-.4.91-1.18.82-2.57.69-2.85-.26-2.66-.16-2.82-1.07s.81-1.14,2.23-1.14S-212.81,40.43-213.22,41.37Z" transform="translate(560 240)"/><path class="cls-7" d="M-213.22,41.37c-.56,1.17-1.28.79-2.57.69,0,0,3.38-.38.81-1.87-1.09-.65-2-.34-.58-.34S-212.78,40.44-213.22,41.37Z" transform="translate(560 240)"/><path class="cls-5" d="M-204.62,44.37c-2.84-.42-2.66-.25-2.82-1.7s.81-1.8,2.23-1.8" transform="translate(560 240)"/><path class="cls-5" d="M-208.26,42.25c-1.28,2.57-1.06,2.44-2.49,2.15s-1.46-1.33-1-2.68" transform="translate(560 240)"/><path class="cls-7" d="M-227.57,19.13c1.14,1,1.68,4.91.66,6.07s-3.2-.86-4.34-1.86a2.77,2.77,0,0,1-.22-3.91A2.77,2.77,0,0,1-227.57,19.13Z" transform="translate(560 240)"/></g></g></g></svg>