<svg xmlns="http://www.w3.org/2000/svg" xmlns:xlink="http://www.w3.org/1999/xlink" viewBox="0 0 379.31 305.26"><defs><style>.cls-1,.cls-14,.cls-15,.cls-29,.cls-30,.cls-34,.cls-35,.cls-41,.cls-44,.cls-7,.cls-9{fill:none;}.cls-2{isolation:isolate;}.cls-26,.cls-3{fill:#ef77ae;}.cls-11,.cls-12,.cls-14,.cls-15,.cls-16,.cls-20,.cls-21,.cls-22,.cls-24,.cls-25,.cls-26,.cls-27,.cls-29,.cls-3,.cls-30,.cls-31,.cls-32,.cls-33,.cls-34,.cls-35,.cls-36,.cls-38,.cls-39,.cls-4,.cls-40,.cls-7,.cls-9{stroke:#333132;}.cls-11,.cls-14,.cls-15,.cls-22,.cls-24,.cls-26,.cls-3,.cls-30,.cls-31,.cls-33,.cls-34,.cls-35,.cls-40,.cls-41,.cls-9{stroke-linecap:round;}.cls-11,.cls-22,.cls-24,.cls-26,.cls-29,.cls-3,.cls-30,.cls-31,.cls-33,.cls-40,.cls-41,.cls-7,.cls-9{stroke-linejoin:round;}.cls-11,.cls-14,.cls-24,.cls-3,.cls-4,.cls-7,.cls-9{stroke-width:3.4px;}.cls-11,.cls-27,.cls-31,.cls-4,.cls-8{fill:#cabf9e;}.cls-12,.cls-14,.cls-15,.cls-16,.cls-20,.cls-21,.cls-25,.cls-27,.cls-32,.cls-34,.cls-35,.cls-36,.cls-38,.cls-39,.cls-4,.cls-44{stroke-miterlimit:10;}.cls-5{fill:#f2eab3;}.cls-10,.cls-6{opacity:0.1;}.cls-10{mix-blend-mode:multiply;}.cls-12,.cls-32{fill:#cee4ad;}.cls-12,.cls-15,.cls-20,.cls-21,.cls-22{stroke-width:2.55px;}.cls-13,.cls-16,.cls-36{fill:#333132;}.cls-16{stroke-width:5.11px;}.cls-17{clip-path:url(#clip-path);}.cls-18,.cls-21,.cls-22,.cls-39,.cls-40{fill:#f57981;}.cls-19{fill:#e5e5e5;}.cls-20,.cls-38{fill:#a69a8b;}.cls-23{fill:#f2f2f2;}.cls-24,.cls-33{fill:#373737;}.cls-25{fill:#473e30;stroke-width:4px;}.cls-26,.cls-27,.cls-29,.cls-30,.cls-31,.cls-33,.cls-34,.cls-41{stroke-width:3.8px;}.cls-28{fill:#1eb473;}.cls-32,.cls-35,.cls-38,.cls-39,.cls-40{stroke-width:2.85px;}.cls-36{stroke-width:5.7px;}.cls-37{clip-path:url(#clip-path-2);}.cls-41{stroke:#333;}.cls-42{fill:#00a89c;}.cls-43{clip-path:url(#clip-path-3);}.cls-44{stroke:#c69710;stroke-width:3px;}.cls-45{fill:#897645;}</style><clipPath id="clip-path"><path class="cls-1" d="M309.3,178.55c0,4.71-9.63,4.59-15.33,2.55-8-2.84-13,1.68-13-2.55s5.65-2.73,13-6.48C302.05,167.92,309.3,174.31,309.3,178.55Z"/></clipPath><clipPath id="clip-path-2"><path class="cls-1" d="M86,165.29c0,5.26-10.73,5.12-17.09,2.85C60,165,54.44,170,54.44,165.29s6.3-3,14.44-7.22C77.9,153.44,86,160.57,86,165.29Z"/></clipPath><clipPath id="clip-path-3"><path class="cls-1" d="M213.66,137.33c0,7.09-14.47,6.9-23,3.84-12-4.28-19.47,2.52-19.47-3.84s8.49-4.09,19.47-9.73C202.77,121.35,213.66,131,213.66,137.33Z"/></clipPath></defs><title>interns</title><g class="cls-2"><g id="Layer_2" data-name="Layer 2"><g id="Layer_1-2" data-name="Layer 1"><path class="cls-3" d="M256.67,136.21s-8-6.11-1.26-15c0,0-2.09-10.67,6.67-11.23,0,0,1.71-10.36,10.46-8,0,0,2.28-5.6,7.52-2.7a4.53,4.53,0,0,1,6.08-2.62s4.89-3.54,8.5-.25c0,0,4.92-5.15,12.26,1,0,0,7.69-3.29,10,4,0,0,7.68,1.27,7.09,6.92,0,0,3.12,0,2.87,4.31,0,0,4.81-.64,4.81,6.75,0,0,4.79,2.06,1.64,10.11,0,0,3.43,12.77-7.63,14.21,0,0-4.48,12.91-16.89,7.09,0,0-6.75,11.14-18.32,3.37a10.46,10.46,0,0,1-10.63-4.55s-10.47,3.54-13.09-5.15C266.72,144.4,255.41,148.36,256.67,136.21Z"/><path class="cls-4" d="M258.36,156.38h1.19a5.13,5.13,0,0,1-5.11-5.11l-1.19-8.17a5.13,5.13,0,0,1,5.11-5.11h0a5.13,5.13,0,0,1,5.11,5.11v8.17A5.13,5.13,0,0,1,258.36,156.38Z"/><path class="cls-4" d="M293.54,194.82c-31.37,0-56.8,26.43-56.8,59V288.5h113.6V253.85C350.34,221.25,324.91,194.82,293.54,194.82Z"/><path class="cls-5" d="M293.54,191.42A57.88,57.88,0,0,0,247.1,215.1s8.74,2.63,4.33,12.6c0,0-3.55,1.58-3.54,1.56s-1.11,4.35-1.11,4.35c-.41,6.13-10.24,4-10.24,4a63.79,63.79,0,0,0-1.76,14.87l-.88,49.88H351.42l.88-49.88C352.3,218.76,326,191.42,293.54,191.42Z"/><path class="cls-6" d="M314,195.24a61.53,61.53,0,0,1,28.58,52.39V301l9.69.46v-49C352.3,226.25,336.38,203.89,314,195.24Z"/><path class="cls-7" d="M293.54,191.42A57.88,57.88,0,0,0,247.1,215.1s8.74,2.63,4.33,12.6c0,0-3.55,1.58-3.54,1.56s-1.11,4.35-1.11,4.35c-.41,6.13-10.24,4-10.24,4-1.14,4.76-1.76,9.74-2.64,28.73v36H351.42l.88-49.88C352.3,218.76,326,191.42,293.54,191.42Z"/><path class="cls-8" d="M306.82,176.18H280.26v22.14a13.28,13.28,0,0,0,13.28,13.28c.4,0,4.8,4.83,4.8,4.83l1-5.72,4.5,1-.66-4.29a13.22,13.22,0,0,0,3.67-9.15Z"/><path class="cls-9" d="M306.82,176.18H280.26v22.14a13.28,13.28,0,0,0,13.28,13.28c.4,0,4.8,4.83,4.8,4.83l1-5.72,4.5,1-.66-4.29a13.22,13.22,0,0,0,3.67-9.15Z"/><ellipse class="cls-10" cx="293.37" cy="191.25" rx="13.45" ry="6.22"/><path class="cls-11" d="M255.22,121.07s3.56,18.29,3.56,28.79,2.11,16,5.75,22.52l3.11-1.94,1,4.34,2.87,2.05-1.73,2.94c6.95,7.91,13.08,12.83,23.8,12.83,11.83,0,18.85-6,25.88-15.39l-2.78-4.61,5,1.39c4.22-6.87,6.7-9.47,6.7-24.13a134.19,134.19,0,0,1,3.56-28.79Z"/><line class="cls-9" x1="256.28" y1="300.01" x2="254.8" y2="242.51"/><line class="cls-9" x1="324.44" y1="300.01" x2="327.44" y2="242.51"/><path class="cls-10" d="M297.86,148.66c0,5.79,9.05,12.39,14.85,12.39s9.15-3.29,9.15-9.09-2.66-9.47-8.46-9.47S297.86,142.86,297.86,148.66Z"/><path class="cls-12" d="M297.86,145.1c0,5.79,9.05,12.39,14.85,12.39s9.15-3.29,9.15-9.09-2.66-9.48-8.46-9.48S297.86,139.3,297.86,145.1Z"/><path class="cls-13" d="M298.88,163.48c0,4.3-2.39.37-5.34.37s-5.34,3.93-5.34-.37,2.39-7.78,5.34-7.78S298.88,159.18,298.88,163.48Z"/><path class="cls-14" d="M268,110.6s.77-3.26-2.6-7.16"/><path class="cls-14" d="M308.19,107s-.08-5.93,1.11-8.72"/><path class="cls-14" d="M288.49,118.38s1.48,4,6.66,9.82"/><line class="cls-15" x1="291.59" y1="182.88" x2="292.78" y2="179.91"/><path class="cls-16" d="M309.3,178.55c0,4.71-9.63,4.59-15.33,2.55-8-2.84-13,1.68-13-2.55s5.65-2.73,13-6.48C302.05,167.92,309.3,174.31,309.3,178.55Z"/><g class="cls-17"><ellipse class="cls-18" cx="298.29" cy="181.58" rx="7.15" ry="3.07"/></g><path class="cls-10" d="M289.23,148.66c0,5.79-9.06,12.39-14.85,12.39s-9.16-3.29-9.16-9.09,2.66-9.47,8.46-9.47S289.23,142.86,289.23,148.66Z"/><path class="cls-19" d="M289.23,144.1c0,2.17-.37,7.45-1.93,9.26-2.6,3-12,4-17,6-5.39,2.16-5.08-6.16-5.08-12s2.66-9.48,8.46-9.48S289.23,138.3,289.23,144.1Z"/><path class="cls-13" d="M310.35,145.26a5.37,5.37,0,0,0-3.38,1.1,1.48,1.48,0,0,1,.44,1,1.51,1.51,0,0,1-1.43,1.5c.37,1.45,2.18,2.55,4.37,2.55,2.46,0,4.45-1.39,4.45-3.1S312.81,145.26,310.35,145.26Z"/><path class="cls-20" d="M297.86,145.1c0,5.79,5.42.16,11.22.16s13.4,5.15,12.63.93-2.51-7.27-8.31-7.27S297.86,139.3,297.86,145.1Z"/><line class="cls-15" x1="283.85" y1="174.3" x2="282.67" y2="172.52"/><line class="cls-15" x1="304.92" y1="171.51" x2="304.92" y2="169.73"/><path class="cls-21" d="M300.53,249.85c0-1.47,1.19-3.84,2.66-3.84s2.66,2.37,2.66,3.84a2.66,2.66,0,1,1-5.32,0Z"/><ellipse class="cls-21" cx="279.78" cy="229.47" rx="2.49" ry="3.57" transform="translate(-12.25 443.13) rotate(-75.55)"/><path class="cls-22" d="M276.09,220.62a4.38,4.38,0,0,0-3.81-4c-1.47,0-2.66,1.78-2.66,4,0,.08,0,.15,0,.23a4.66,4.66,0,0,0-1.13-.14,4.73,4.73,0,1,0,4.73,4.73,4.57,4.57,0,0,0-.12-1.05C274.18,223.87,276.09,222.38,276.09,220.62Z"/><rect class="cls-19" x="255.2" y="134.62" width="78.8" height="7.03" transform="translate(-12.75 31.34) rotate(-5.96)"/><polygon class="cls-23" points="333.89 135.5 255.52 143.68 255.95 145.79 334.32 137.6 333.89 135.5"/><path class="cls-24" d="M246.17,134.28s7.46-1.78,4.18-17c4.09,5.36,11.5,3,11.5,3l3.33-7.44,4.64-1.54,1.67-5.61,6-2.68C277.33,98,275,94.21,272,92.87c9.12-2.32,21.08-.89,36.49,4.1,0,0,6.63-2.9,4.55-8.52,0,0,8.9.51,7.45,15,0,0,13.14-11,19.22,6.13,0,0-8.27-2.73-8.27,6.13,0,0,9,6.37,1.19,27.4,0,0-9.44-3.86-10.22-12.72-.67-7.55-5.8-8.38-5.8-8.38s4.22,10.72-23.58,15.35c0,0,2.92-10.59.31-12.32.29,0-17.64,24.25-47.18,17.37a12,12,0,0,0,6.05-7.28A7,7,0,0,1,246.17,134.28Z"/><path class="cls-25" d="M333.53,97.8l-8.7-20.2c-.84-12.14-18-31.81-28.09-31.11l-6,6.39-7-8.58c-10.07.7-22.08,27.3-21.24,39.44L255.18,102c-31.3,4.8-52.41,13-52,19.44.47,6.85,25.41,9,60.56,9.11,11.73,0,24.59,1.6,38.06.67,9.5-.66,18-3.58,25.6-4.69,8.53-1.25,15.87-.76,22.1-2.42,3.67-1,4.85-2.71,7.76-3.79,2-.73,5.88-.78,7.51-1.54,8.83-4.09,12.76-8.54,12.49-12.46-.09-1.27-1.35-3.35-1.92-4.28-1.1-1.75-2.36-.93-6.82-1.72-2.74-.48-6.32-1.82-11-2.06C351.55,98,343.71,97.86,333.53,97.8Z"/><path class="cls-26" d="M27.29,118.08s-8.88-6.81-1.41-16.76c0,0-2.32-11.89,7.44-12.52,0,0,1.91-11.55,11.67-8.94,0,0,2.54-6.25,8.38-3a5.05,5.05,0,0,1,6.78-2.92s5.46-4,9.48-.28c0,0,5.49-5.75,13.68,1.13,0,0,8.57-3.68,11.11,4.42,0,0,8.56,1.41,7.9,7.72,0,0,3.49,0,3.21,4.8,0,0,5.36-.72,5.36,7.53,0,0,5.34,2.29,1.83,11.28,0,0,3.82,14.23-8.51,15.83,0,0-5,14.41-18.83,7.91,0,0-7.53,12.43-20.43,3.77A11.67,11.67,0,0,1,53.09,133s-11.67,4-14.59-5.74C38.5,127.21,25.88,131.64,27.29,118.08Z"/><path class="cls-27" d="M29.18,140.58H30.5a5.71,5.71,0,0,1-5.69-5.7l-1.33-9.12a5.71,5.71,0,0,1,5.7-5.69h0a5.71,5.71,0,0,1,5.7,5.69v9.12A5.72,5.72,0,0,1,29.18,140.58Z"/><path class="cls-27" d="M68.4,183.45c-35,0-63.33,29.46-63.33,65.81V287.9H131.74V249.26C131.74,212.91,103.39,183.45,68.4,183.45Z"/><path class="cls-28" d="M68.4,179.65c-21.07,0-39.8,10.34-51.79,26.4,0,0,9.75,2.94,4.84,14l-3.95,1.75-1.24,4.84c-.45,6.84-11.41,4.46-11.41,4.46a70.67,70.67,0,0,0-2,16.58l-1,55.63h131l1-55.63C133.93,210.13,104.59,179.65,68.4,179.65Z"/><path class="cls-6" d="M91.26,183.91a68.61,68.61,0,0,1,31.87,58.42v45.06l10.8.51V247.73C133.93,218.48,116.17,193.55,91.26,183.91Z"/><path class="cls-29" d="M68.4,179.65c-21.07,0-39.8,10.34-51.79,26.4,0,0,9.75,2.94,4.84,14l-3.95,1.75-1.24,4.84c-.45,6.84-11.41,4.46-11.41,4.46-1.28,5.31-2,10.86-2.95,32v40.16h131l1-55.63C133.93,210.13,104.59,179.65,68.4,179.65Z"/><path class="cls-8" d="M83.22,162.65H53.59v24.69A14.81,14.81,0,0,0,68.4,202.15c.45,0,5.35,5.39,5.35,5.39l1.09-6.38,5,1.17-.74-4.78a14.77,14.77,0,0,0,4.1-10.21Z"/><path class="cls-30" d="M83.22,162.65H53.59v24.69A14.81,14.81,0,0,0,68.4,202.15c.45,0,5.35,5.39,5.35,5.39l1.09-6.38,5,1.17-.74-4.78a14.77,14.77,0,0,0,4.1-10.21Z"/><ellipse class="cls-10" cx="68.21" cy="179.46" rx="15" ry="6.94"/><path class="cls-31" d="M25.67,101.2s4,20.4,4,32.1,2.36,17.82,6.42,25.12l3.47-2.17,1.06,4.85,3.21,2.29-1.93,3.27C49.62,175.48,56.45,181,68.4,181c13.2,0,21-6.67,28.86-17.16l-3.1-5.14,5.54,1.56c4.71-7.66,7.47-10.56,7.47-26.92a149.67,149.67,0,0,1,4-32.1Z"/><line class="cls-30" x1="26.86" y1="300.73" x2="25.2" y2="236.62"/><path class="cls-10" d="M73.22,132c0,6.47,10.09,13.82,16.56,13.82s10.2-3.66,10.2-10.13-3-10.57-9.42-10.57S73.22,125.5,73.22,132Z"/><path class="cls-32" d="M73.22,128c0,6.47,10.09,13.82,16.56,13.82s10.2-3.66,10.2-10.13-3-10.57-9.42-10.57S73.22,121.53,73.22,128Z"/><path class="cls-33" d="M119.91,115.93s-8.33-2-4.67-19c-4.55,6-12.82,3.32-12.82,3.32L98.71,92l-5.18-1.72L91.67,84,85,81c.13-5.51,2.74-9.77,6.07-11.26-10.17-2.59-23.51-1-40.69,4.56,0,0-7.4-3.23-5.07-9.49,0,0-9.93.56-8.31,16.71,0,0-14.66-12.21-21.44,6.84,0,0,9.23-3,9.23,6.83,0,0-10,7.1-1.33,30.55,0,0,10.53-4.3,11.4-14.18.74-8.41,6.46-9.34,6.46-9.34s-4.7,12,26.3,17.12c0,0-3.26-11.81-.35-13.75-.33,0,19.67,27,52.62,19.37a13.34,13.34,0,0,1-6.76-8.12A7.79,7.79,0,0,0,119.91,115.93Z"/><path class="cls-13" d="M74.36,148.5c0,4.79-2.67.41-6,.41s-6,4.38-6-.41,2.67-8.68,6-8.68S74.36,143.7,74.36,148.5Z"/><path class="cls-34" d="M39.92,89.53s.85-3.64-2.9-8"/><path class="cls-34" d="M84.74,85.54s-.09-6.62,1.23-9.72"/><path class="cls-34" d="M62.78,98.2s1.64,4.47,7.43,11"/><line class="cls-35" x1="66.23" y1="170.13" x2="67.56" y2="166.82"/><path class="cls-36" d="M86,165.29c0,5.26-10.73,5.12-17.09,2.85C60,165,54.44,170,54.44,165.29s6.3-3,14.44-7.22C77.9,153.44,86,160.57,86,165.29Z"/><g class="cls-37"><ellipse class="cls-18" cx="73.7" cy="168.68" rx="7.98" ry="3.42"/></g><path class="cls-10" d="M63.59,132c0,6.47-10.09,13.82-16.55,13.82s-10.21-3.66-10.21-10.13,3-10.57,9.43-10.57S63.59,125.5,63.59,132Z"/><path class="cls-32" d="M63.59,128c0,6.47-10.09,13.82-16.55,13.82s-10.21-3.66-10.21-10.13,3-10.57,9.43-10.57S63.59,121.53,63.59,128Z"/><path class="cls-13" d="M87.15,128.17a6,6,0,0,0-3.77,1.23,1.69,1.69,0,0,1,.49,1.18,1.67,1.67,0,0,1-1.6,1.66c.42,1.62,2.44,2.85,4.88,2.85,2.74,0,5-1.55,5-3.46S89.89,128.17,87.15,128.17Z"/><path class="cls-38" d="M73.22,128c0,6.47,6,.18,12.51.18s15,5.75,14.09,1.05-2.8-8.11-9.26-8.11S73.22,121.53,73.22,128Z"/><path class="cls-13" d="M49.67,128.17a6.12,6.12,0,0,0-3.61,1.1,1.63,1.63,0,0,1,.68,1.31,1.68,1.68,0,0,1-1.68,1.68,1.4,1.4,0,0,1-.28-.06c.4,1.64,2.42,2.89,4.89,2.89,2.74,0,5-1.55,5-3.46S52.41,128.17,49.67,128.17Z"/><path class="cls-38" d="M63.59,128c0,6.47-8.08-1-17.46.18-6.41.82-9.3,7.48-9.3,3.51,0-6.47,3-10.57,9.43-10.57S63.59,121.53,63.59,128Z"/><line class="cls-35" x1="57.6" y1="160.56" x2="56.28" y2="158.57"/><line class="cls-35" x1="81.1" y1="157.45" x2="81.1" y2="155.46"/><path class="cls-39" d="M76.2,244.81c0-1.64,1.33-4.29,3-4.29s3,2.65,3,4.29a3,3,0,0,1-5.93,0Z"/><ellipse class="cls-39" cx="53.06" cy="222.08" rx="2.78" ry="3.98" transform="translate(-175.23 218.04) rotate(-75.55)"/><path class="cls-40" d="M49,212.21a4.88,4.88,0,0,0-4.25-4.42c-1.64,0-3,2-3,4.42,0,.09,0,.17,0,.26a5.16,5.16,0,0,0-1.25-.16,5.27,5.27,0,1,0,5.27,5.27,4.91,4.91,0,0,0-.14-1.16C46.81,215.84,49,214.18,49,212.21Z"/><line class="cls-41" x1="269.05" y1="302.55" x2="269.05" y2="254.46"/><line class="cls-30" x1="110.28" y1="291.9" x2="111.61" y2="240.62"/><path class="cls-26" d="M134.55,73.69s-12-9.18-1.9-22.59c0,0-3.13-16,10-16.88,0,0,2.58-15.57,15.73-12.06,0,0,3.43-8.42,11.3-4.06a6.79,6.79,0,0,1,9.13-3.93s7.36-5.33,12.78-.38c0,0,7.4-7.74,18.44,1.52,0,0,11.55-5,15,6,0,0,11.55,1.91,10.66,10.41,0,0,4.69,0,4.31,6.47,0,0,7.24-1,7.24,10.15,0,0,7.2,3.1,2.46,15.21,0,0,5.15,19.19-11.47,21.34,0,0-6.73,19.42-25.39,10.66,0,0-10.15,16.76-27.53,5.08a15.74,15.74,0,0,1-16-6.85S153.59,99.07,149.66,86C149.66,86,132.65,92,134.55,73.69Z"/><path class="cls-27" d="M137.1,104h1.78a7.7,7.7,0,0,1-7.68-7.68L129.41,84a7.71,7.71,0,0,1,7.69-7.68h0A7.71,7.71,0,0,1,144.78,84V96.33A7.7,7.7,0,0,1,137.1,104Z"/><path class="cls-27" d="M242.85,104h-1.79c-4.22,0-5.89-3.45-5.89-7.68V84a7.7,7.7,0,0,1,7.68-7.68h0A7.71,7.71,0,0,1,250.53,84l-1.79,12.29C248.74,100.56,247.07,104,242.85,104Z"/><path class="cls-27" d="M190,161.8c-47.15,0-85.38,39.72-85.38,88.73v52.08H275.35V250.53C275.35,201.52,237.13,161.8,190,161.8Z"/><path class="cls-42" d="M190,156.68c-28.4,0-53.66,13.95-69.81,35.6,0,0,13.14,4,6.51,18.93,0,0-5.33,2.38-5.32,2.36s-1.67,6.53-1.67,6.53c-.61,9.22-15.38,6-15.38,6a95.06,95.06,0,0,0-2.65,22.36v54.14H278.3V248.47C278.3,197.77,238.75,156.68,190,156.68Z"/><path class="cls-6" d="M222.73,163.23c26.73,15.78,44.77,45.61,44.77,79.83v59.49l10.8.06V248.47C278.3,209.81,255.29,176.75,222.73,163.23Z"/><path class="cls-29" d="M190,156.68c-28.4,0-53.66,13.95-69.81,35.6,0,0,13.14,4,6.51,18.93,0,0-5.33,2.38-5.32,2.36s-1.67,6.53-1.67,6.53c-.61,9.22-15.38,6-15.38,6a95.06,95.06,0,0,0-2.65,22.36v54.14H278.3V248.47C278.3,197.77,238.75,156.68,190,156.68Z"/><path class="cls-8" d="M209.94,133.77H170v33.28a20,20,0,0,0,20,20c.6,0,7.21,7.26,7.21,7.26l1.46-8.6,6.77,1.58-1-6.45a19.89,19.89,0,0,0,5.52-13.76Z"/><path class="cls-30" d="M209.94,133.77H170v33.28a20,20,0,0,0,20,20c.6,0,7.21,7.26,7.21,7.26l1.46-8.6,6.77,1.58-1-6.45a19.89,19.89,0,0,0,5.52-13.76Z"/><ellipse class="cls-10" cx="189.72" cy="156.43" rx="20.23" ry="9.35"/><path class="cls-31" d="M132.37,50.93s5.35,27.5,5.35,43.27,3.17,24,8.65,33.86l4.67-2.91,1.44,6.52,4.32,3.09-2.6,4.41c10.45,11.9,19.66,19.28,35.77,19.28,17.79,0,28.34-9,38.9-23.13l-4.17-6.93,7.46,2.1c6.34-10.33,10.06-14.24,10.06-36.29s5.36-43.27,5.36-43.27Z"/><line class="cls-30" x1="133.52" y1="302.61" x2="131.74" y2="233.49"/><line class="cls-30" x1="246.42" y1="302.61" x2="248.21" y2="233.49"/><path class="cls-10" d="M196.46,92.4c0,8.72,13.61,18.63,22.33,18.63s13.75-4.94,13.75-13.66-4-14.25-12.71-14.25S196.46,83.68,196.46,92.4Z"/><path class="cls-40" d="M225.48,209.35c0-6.33-3.54-9.67-7.92-9.67s-7.91,5.12-7.91,11.45,3.54,9.67,7.91,9.67h.18l0,.55a4.45,4.45,0,0,0,.87,8.81,5.87,5.87,0,0,0,.59-.05c1.42,3.27,3.71,5.41,6.31,5.41,4.31,0,7.81-5.86,7.81-13.08S229.79,209.35,225.48,209.35Z"/><path class="cls-32" d="M196.46,87.05c0,8.71,13.61,18.62,22.33,18.62s13.75-4.94,13.75-13.65-4-14.25-12.71-14.25S196.46,78.33,196.46,87.05Z"/><path class="cls-33" d="M259.4,70.79s-11.23-2.67-6.29-25.59c-6.14,8-17.28,4.48-17.28,4.48l-5-11.18-7-2.31-2.5-8.44-9-4c.18-7.43,3.69-13.17,8.19-15.18-13.72-3.5-31.69-1.35-54.86,6.15,0,0-10-4.35-6.84-12.8,0,0-13.37.76-11.2,22.53,0,0-19.76-16.46-28.9,9.22,0,0,12.45-4.1,12.45,9.21,0,0-13.55,9.57-1.8,41.18,0,0,14.19-5.8,15.37-19.12,1-11.34,8.71-12.59,8.71-12.59S147.15,68.44,189,75.41c0,0-4.4-15.92-.48-18.53C188,56.88,215,93.33,259.4,83a18,18,0,0,1-9.11-10.94A10.53,10.53,0,0,0,259.4,70.79Z"/><path class="cls-13" d="M198,114.69c0,6.46-3.59.55-8,.55s-8,5.91-8-.55,3.6-11.7,8-11.7S198,108.23,198,114.69Z"/><path class="cls-34" d="M151.57,35.2s1.15-4.9-3.91-10.77"/><path class="cls-34" d="M212,29.81s-.12-8.91,1.67-13.1"/><path class="cls-34" d="M182.39,46.89s2.22,6,10,14.77"/><line class="cls-35" x1="187.05" y1="143.85" x2="188.83" y2="139.39"/><path class="cls-36" d="M213.66,137.33c0,7.09-14.47,6.9-23,3.84-12-4.28-19.47,2.52-19.47-3.84s8.49-4.09,19.47-9.73C202.77,121.35,213.66,131,213.66,137.33Z"/><g class="cls-43"><ellipse class="cls-18" cx="197.11" cy="141.9" rx="10.75" ry="4.61"/></g><path class="cls-10" d="M183.49,92.4c0,8.72-13.61,18.63-22.32,18.63s-13.76-4.94-13.76-13.66,4-14.25,12.71-14.25S183.49,83.68,183.49,92.4Z"/><path class="cls-32" d="M183.49,87.05c0,8.71-13.61,18.62-22.32,18.62S147.41,100.73,147.41,92s4-14.25,12.71-14.25S183.49,78.33,183.49,87.05Z"/><path class="cls-13" d="M215.24,87.29A8.11,8.11,0,0,0,210.16,89a2.24,2.24,0,0,1-1.49,3.83c.55,2.18,3.28,3.84,6.57,3.84,3.7,0,6.69-2.09,6.69-4.66S218.94,87.29,215.24,87.29Z"/><path class="cls-38" d="M196.46,87.05c0,8.71,8.15.24,16.87.24s20.15,7.74,19,1.41c-1.18-6.48-3.77-10.93-12.49-10.93S196.46,78.33,196.46,87.05Z"/><path class="cls-13" d="M164.71,87.29a8.22,8.22,0,0,0-4.85,1.47,2.24,2.24,0,0,1,.91,1.77,2.27,2.27,0,0,1-2.27,2.27,1.63,1.63,0,0,1-.37-.08c.53,2.21,3.26,3.9,6.58,3.9,3.7,0,6.69-2.09,6.69-4.66S168.41,87.29,164.71,87.29Z"/><path class="cls-38" d="M183.49,87.05c0,8.71-10.9-1.37-23.54.24C151.3,88.4,147.41,97.37,147.41,92c0-8.72,4-14.25,12.71-14.25S183.49,78.33,183.49,87.05Z"/><line class="cls-35" x1="175.41" y1="130.94" x2="173.63" y2="128.27"/><line class="cls-35" x1="207.08" y1="126.75" x2="207.08" y2="124.08"/><path class="cls-39" d="M207.62,244c0-2.21,1.79-5.78,4-5.78s4,3.57,4,5.78a4,4,0,0,1-8,0Z"/><line class="cls-44" x1="255.3" y1="102.36" x2="333.3" y2="96.36"/><path class="cls-44" d="M305.8,98.86s7.82,1.57,10,3c3.26,2.16,10,6,10,6"/><path class="cls-44" d="M301.8,98.86s-7.82,1.57-10,3c-3.26,2.16-10,6-10,6"/><circle class="cls-45" cx="294.8" cy="85.86" r="3"/></g></g></g></svg>