<svg xmlns="http://www.w3.org/2000/svg" viewBox="0 0 318.7 357.77"><defs><style>.cls-1{isolation:isolate;}.cls-10,.cls-16,.cls-2{fill:#333132;}.cls-12,.cls-13,.cls-15,.cls-16,.cls-17,.cls-19,.cls-2,.cls-20,.cls-21,.cls-3,.cls-5,.cls-7,.cls-8,.cls-9{stroke:#333132;}.cls-12,.cls-15,.cls-16,.cls-17,.cls-2,.cls-20,.cls-21,.cls-3,.cls-7{stroke-linejoin:round;}.cls-15,.cls-17,.cls-19,.cls-2,.cls-3,.cls-7,.cls-8,.cls-9{stroke-width:4.09px;}.cls-3{fill:#6c5b4b;}.cls-12,.cls-13,.cls-15,.cls-16,.cls-21,.cls-3{stroke-linecap:round;}.cls-4{fill:#8bc540;}.cls-11,.cls-19,.cls-20,.cls-5{fill:#fff;}.cls-13,.cls-19,.cls-5,.cls-8,.cls-9{stroke-miterlimit:10;}.cls-12,.cls-13,.cls-16,.cls-20,.cls-21,.cls-5{stroke-width:3.07px;}.cls-6{opacity:0.1;}.cls-12,.cls-13,.cls-15,.cls-7,.cls-8{fill:none;}.cls-17,.cls-9{fill:#cccbcb;}.cls-14,.cls-21{fill:#c6b198;}.cls-18{fill:#6fcbdc;}.cls-22{opacity:0.75;mix-blend-mode:overlay;}</style></defs><title>inventor</title><g class="cls-1"><g id="Layer_2" data-name="Layer 2"><g id="Layer_1-2" data-name="Layer 1"><path class="cls-2" d="M111.71,355.72l21.44-2.12,23-32s23.13-3.19,28.21,2.62l-10.56,25.39,17.86-1.76s17.74-21.3,17.52-50.5c0,0-22.85,21.42-60.87,4.28Z"/><rect class="cls-3" x="2.28" y="259.08" width="314.37" height="11.79"/><path class="cls-4" d="M93.64,222V197.32c1.37-.53,2.23-1.25,2.23-2,0-1.63-3.52-3-7.86-3s-7.86,1.32-7.86,3c0,.8.85,1.52,2.22,2V222a17.69,17.69,0,1,0,11.27,0Z"/><path class="cls-5" d="M100.38,238.41a12.38,12.38,0,1,1-24.75,0c0-6.83,5.3-.94,12.77-1.12C95.24,237.12,100.38,231.58,100.38,238.41Z"/><path class="cls-4" d="M133.33,230.56V205.8h-.06a1.36,1.36,0,0,0,.06-.29c0-1.34-2.37-2.43-5.3-2.43s-5.31,1.09-5.31,2.43a1,1,0,0,0,.07.29h-.07v24.76s-12.38,7.68-12.38,17.25a8.27,8.27,0,0,0,8.63,8.63h18.12a8.66,8.66,0,0,0,8.62-8.63C145.71,238.24,133.33,230.56,133.33,230.56Z"/><path class="cls-5" d="M118.2,244.08c-2.34,3.48-.91,6.71,2.78,6.71h14.09c3.69,0,5-3.74,2.78-6.71C134.22,239.19,121.84,238.7,118.2,244.08Z"/><ellipse class="cls-4" cx="128.03" cy="205.44" rx="6.88" ry="2.95"/><path class="cls-6" d="M133.33,230.56V205.8h-.06a1.36,1.36,0,0,0,.06-.29c0-1.34-2.37-2.43-5.3-2.43-2.65,0-4.82.89-5.22,2,.41,0,.84-.08,1.29-.08,2.93,0,5.3,1.09,5.3,2.44a1.5,1.5,0,0,1-.06.29h.06v24.76s12.38,7.67,12.38,17.25a8.58,8.58,0,0,1-3,6.48,8.64,8.64,0,0,0,6.94-8.45C145.71,238.24,133.33,230.56,133.33,230.56Z"/><path class="cls-7" d="M133.33,230.56V205.8h-.06a1.36,1.36,0,0,0,.06-.29c0-1.34-2.37-2.43-5.3-2.43s-5.31,1.09-5.31,2.43a1,1,0,0,0,.07.29h-.07v24.76s-12.38,7.68-12.38,17.25a8.27,8.27,0,0,0,8.63,8.63h18.12a8.66,8.66,0,0,0,8.62-8.63C145.71,238.24,133.33,230.56,133.33,230.56Z"/><path class="cls-4" d="M53.27,230.56V205.8H53.2a1,1,0,0,0,.07-.29c0-1.34-2.38-2.43-5.31-2.43s-5.3,1.09-5.3,2.43a1.36,1.36,0,0,0,.06.29h-.06v24.76s-12.38,7.68-12.38,17.25a8.26,8.26,0,0,0,8.62,8.63H57a8.66,8.66,0,0,0,8.63-8.63C65.65,238.24,53.27,230.56,53.27,230.56Z"/><path class="cls-5" d="M38.14,244.08c-2.35,3.48-.91,6.71,2.78,6.71H55c3.69,0,5-3.74,2.78-6.71C54.15,239.19,41.77,238.7,38.14,244.08Z"/><ellipse class="cls-4" cx="47.96" cy="205.44" rx="6.88" ry="2.95"/><path class="cls-4" d="M276.85,230.56V205.8h-.06a1.36,1.36,0,0,0,.06-.29c0-1.34-2.37-2.43-5.31-2.43s-5.3,1.09-5.3,2.43a1.36,1.36,0,0,0,.06.29h-.06v24.76s-12.38,7.68-12.38,17.25a8.27,8.27,0,0,0,8.63,8.63H280.6a8.66,8.66,0,0,0,8.63-8.63C289.23,238.24,276.85,230.56,276.85,230.56Z"/><path class="cls-5" d="M261.72,244.08c-2.34,3.48-.91,6.71,2.78,6.71h14.09c3.69,0,5-3.74,2.78-6.71C277.73,239.19,265.36,238.7,261.72,244.08Z"/><path class="cls-4" d="M237.16,222V197.32c1.37-.53,2.22-1.25,2.22-2,0-1.63-3.52-3-7.86-3s-7.86,1.32-7.86,3c0,.8.86,1.52,2.23,2V222a17.69,17.69,0,1,0,11.27,0Z"/><g class="cls-6"><path d="M237.16,222V195.27c0-1.06-2.52-1.92-5.64-1.92s-5.63.86-5.63,1.92v.15a15.39,15.39,0,0,1,1.7-.1c3.12,0,5.64.86,5.64,1.91V224a17.67,17.67,0,0,1,4.23,31.42,17.66,17.66,0,0,0-.3-33.39Z"/><path d="M221.74,224.05,222,224v-.07Z"/></g><path class="cls-7" d="M276.85,230.56V205.8h-.06a1.36,1.36,0,0,0,.06-.29c0-1.34-2.37-2.43-5.31-2.43s-5.3,1.09-5.3,2.43a1.36,1.36,0,0,0,.06.29h-.06v24.76s-12.38,7.68-12.38,17.25a8.27,8.27,0,0,0,8.63,8.63H280.6a8.66,8.66,0,0,0,8.63-8.63C289.23,238.24,276.85,230.56,276.85,230.56Z"/><ellipse class="cls-4" cx="271.54" cy="205.44" rx="6.88" ry="2.95"/><path class="cls-6" d="M276.85,230.56V205.8h-.06a1.36,1.36,0,0,0,.06-.29c0-1.34-2.38-2.43-5.31-2.43-2.64,0-4.81.89-5.22,2,.42,0,.85-.08,1.3-.08,2.93,0,5.3,1.09,5.3,2.44a1.5,1.5,0,0,1-.06.29h.06v24.76s12.38,7.67,12.38,17.25a8.56,8.56,0,0,1-3,6.48,8.64,8.64,0,0,0,7-8.45C289.23,238.24,276.85,230.56,276.85,230.56Z"/><path class="cls-5" d="M243.9,238.41a12.38,12.38,0,1,1-24.75,0c0-6.83,5.3-.94,12.77-1.12C238.75,237.12,243.9,231.58,243.9,238.41Z"/><path class="cls-6" d="M53.27,230.56V205.8H53.2a1,1,0,0,0,.07-.29c0-1.34-2.38-2.43-5.31-2.43-2.64,0-4.81.89-5.22,2,.42,0,.84-.08,1.29-.08,2.93,0,5.31,1.09,5.31,2.44a1,1,0,0,1-.07.29h.07v24.76s12.38,7.67,12.38,17.25a8.56,8.56,0,0,1-3,6.48,8.64,8.64,0,0,0,7-8.45C65.65,238.24,53.27,230.56,53.27,230.56Z"/><ellipse class="cls-8" cx="271.54" cy="205.44" rx="6.88" ry="2.95"/><ellipse class="cls-8" cx="128.03" cy="205.44" rx="6.88" ry="2.95"/><ellipse class="cls-8" cx="47.96" cy="205.44" rx="6.88" ry="2.95"/><path class="cls-7" d="M53.27,230.56V205.8H53.2a1,1,0,0,0,.07-.29c0-1.34-2.38-2.43-5.31-2.43s-5.3,1.09-5.3,2.43a1.36,1.36,0,0,0,.06.29h-.06v24.76s-12.38,7.68-12.38,17.25a8.26,8.26,0,0,0,8.62,8.63H57a8.66,8.66,0,0,0,8.63-8.63C65.65,238.24,53.27,230.56,53.27,230.56Z"/><path class="cls-9" d="M144.77,18.75C131.5,31.64,148.29,51,158.16,51.36c17.26.59,35.24,5.65,38-2.45C208.44,12.88,167.88-3.71,144.77,18.75Z"/><g class="cls-6"><path d="M93.64,222V195.27c0-1.06-2.52-1.92-5.63-1.92s-5.64.86-5.64,1.92v.15a15.43,15.43,0,0,1,1.71-.1c3.11,0,5.63.86,5.63,1.91V224a17.67,17.67,0,0,1,4.23,31.42,17.66,17.66,0,0,0-.3-33.39Z"/><path d="M78.22,224.05l.22-.08v-.07Z"/></g><path class="cls-10" d="M300.05,112.23c4.56,12.2-39.14,5-35.32-1.67S279,80.33,279.89,69.12c.36-4.75-1.47-3.27-5.86-6.13-6.09-4-9.38-12.5-4.46-14.47,4.07-1.63,3.29,1.42,5.7,4.91,2.78,4,7.81,6.14,8.13-4.24.45-9-8.27-13.49-4.08-16,8.63-5.09,14.22,11,13.57,17.85a17.76,17.76,0,0,0,.6-14.63c-2.62-6.6,5.76-7.83,8.43-2.55,2.22,4.39,3.7,12.06.7,21.13.16.15,2.34-.48,6.81-8.77,3.26-6,11.16-.91,5.43,7.14s-10,9.68-14.25,15.82C297.92,73.12,291.06,88.1,300.05,112.23Z"/><path class="cls-11" d="M290.69,114.68l-16.6-2.7c-23.79,58.79-84.36,30.07-84.36,30.07s4.91-9.26-3.37-14.12c-6.56-3.85-15.22-4.36-23.86,1.33C149.18,138,157,150.17,157,150.13c-34.55,35.44-68.21,11.66-68.21,11.66l-15.7,19.3c11,8.07,21.84,11.52,31.7,12.35a7.4,7.4,0,0,0,14.58-.58A68.81,68.81,0,0,0,148,181.09l-2.1,124.29c41.74,3.59,59.68,35.45,59.68,35.45,11.57-53.86,6.59-174.1,7.4-174.1,15.61,2.46,28.07,1.54,38.05-1.41a7.4,7.4,0,0,0,13.24-5.82C288.91,144.36,290.69,114.68,290.69,114.68Z"/><polygon class="cls-6" points="73.08 179.57 83.98 161.33 91.56 163.42 79.69 185.45 73.08 179.57"/><path class="cls-8" d="M93.64,222V197.32c1.37-.53,2.23-1.25,2.23-2,0-1.63-3.52-3-7.86-3s-7.86,1.32-7.86,3c0,.8.85,1.52,2.22,2V222a17.69,17.69,0,1,0,11.27,0Z"/><path class="cls-10" d="M67.19,183.4c5.79,11.67,30.44-25.12,23-26.9S54.17,142,45.41,135c-3.71-3-17.31,18.27-9.94,19.4C40.15,155.07,55.77,160.32,67.19,183.4Z"/><path class="cls-12" d="M167.88,158.2s-10.9-4.72-13-14.44"/><path class="cls-12" d="M184.37,147.43s8.42-7.06,6.13-14.92"/><ellipse class="cls-10" cx="172.39" cy="137.9" rx="11.76" ry="7.28" transform="translate(-39.38 75.56) rotate(-22.25)"/><path class="cls-13" d="M154.84,165.27s-7.82,5.43-6.47,26.6"/><path class="cls-12" d="M151.58,170.7s25.39,7.87,44.23,0c0,0,9.76,66.48-9.63,149.62"/><ellipse class="cls-10" cx="187.63" cy="189.4" rx="3.26" ry="4.81"/><g class="cls-6"><path d="M274.09,112a49.65,49.65,0,0,1-3.28,6.85h18.85l1-4.14Z"/><path d="M207.83,161.33c-5.63-.68,1.47,112.6-10.75,168.58,3.66,4.37,8.49,10.92,8.49,10.92,8.83-41.1,8-136,7.5-174.1C213.07,166.73,213.32,162,207.83,161.33Z"/></g><ellipse class="cls-10" cx="187.63" cy="226.58" rx="3.26" ry="4.81"/><ellipse class="cls-10" cx="184.37" cy="263.76" rx="3.26" ry="4.81"/><path class="cls-7" d="M290.69,114.68l-16.6-2.7c-23.79,58.79-84.36,30.07-84.36,30.07s4.91-9.26-3.37-14.12c-6.56-3.85-15.22-4.36-23.86,1.33C149.18,138,157,150.17,157,150.13c-34.55,35.44-68.21,11.66-68.21,11.66l-15.7,19.3c11,8.07,21.84,11.52,31.7,12.35a7.4,7.4,0,0,0,14.58-.58A68.81,68.81,0,0,0,148,181.09l-2.1,124.29c41.74,3.59,59.68,35.45,59.68,35.45,11.57-53.86,6.59-174.1,7.4-174.1,15.61,2.46,28.07,1.54,38.05-1.41a7.4,7.4,0,0,0,13.24-5.82C288.91,144.36,290.69,114.68,290.69,114.68Z"/><path class="cls-12" d="M109.88,186.36s-8.52,3-1.95,11.69"/><path class="cls-12" d="M258.41,154.84s9.23,2.39,3.5,11.62"/><path class="cls-14" d="M212.74,73.64c0-31.59-23-57.21-51.38-57.21S110,42.05,110,73.64s23,57.22,51.38,57.22l.32,0,2.73,10.25s8,4.43,15.17-3.21L177,128.16C197.7,120.8,212.74,99.19,212.74,73.64Z"/><g class="cls-6"><path d="M172.07,140.69l7.51-2.81L177,128.16c18.79-9.22,35.79-31.09,35.79-54.52l-3.57-15.4c0,41.23-18.28,56.44-39.79,67.21Z"/></g><ellipse class="cls-11" cx="125.96" cy="58.24" rx="16.48" ry="8.79" transform="translate(55.47 177.78) rotate(-84.29)"/><path class="cls-6" d="M127.6,41.85a4.59,4.59,0,0,0-1.17,0c2.29,3.11,3.5,8.53,2.9,14.54-.83,8.32-4.83,14.84-9.22,15.47a6.09,6.09,0,0,0,4.21,2.74c4.83.48,9.49-6.47,10.39-15.52S132.44,42.33,127.6,41.85Z"/><ellipse class="cls-11" cx="153.56" cy="62.5" rx="10.83" ry="20.29"/><path class="cls-15" d="M212.74,73.64c0-31.59-23-57.21-51.38-57.21S110,42.05,110,73.64s23,57.22,51.38,57.22l.32,0,2.73,10.25s8,4.43,15.17-3.21L177,128.16C197.7,120.8,212.74,99.19,212.74,73.64Z"/><path class="cls-10" d="M150.87,56.49c-1.54,0-2.79-2-2.79-4.37s1.25-4.38,2.79-4.38a2,2,0,0,1,1,.32A2.92,2.92,0,0,0,150,46c-2.14-.46-4.67,2.85-5.65,7.4s0,8.6,2.11,9.06c1.95.42,4.2-2.3,5.33-6.22A1.9,1.9,0,0,1,150.87,56.49Z"/><path class="cls-10" d="M123.17,48.8c0-2.14,1-3.91,2.28-4.29a3,3,0,0,0-2-2.23c-2.14-.46-4.66,2.85-5.64,7.4s0,8.6,2.1,9.06c1.88.4,4-2.09,5.22-5.78C124,52.41,123.17,50.77,123.17,48.8Z"/><path class="cls-16" d="M168.29,39l-3.9-6.33,3.49-6.39c-16.36-3-29.73,12.79-29.73,12.79S126,23.38,109.88,28.75L114,33.68l-4.15,7c14.92-4.26,29.21,13,29.21,13S151.58,37.38,168.29,39Z"/><path class="cls-17" d="M176.86,36.6c-11.71,14.32-1.94,33.88,10.77,31.75,17-2.86,0-13.06,8.53-19.44C207.26,40.62,213,62.5,213,76.81a68.46,68.46,0,0,0,6.47-11.52C233.4,35.25,196.94,12,176.86,36.6Z"/><path class="cls-18" d="M42.65,137.77l7.84-37c1.47-.38,2.46-1,2.65-1.91.46-2.19-3.88-4.95-9.7-6.19s-10.91-.46-11.37,1.72c-.19.89.45,1.88,1.64,2.82l-7.84,37a26.93,26.93,0,1,0,16.78,3.56Z"/><path class="cls-5" d="M47.79,162.16a18.85,18.85,0,1,1-37.62-2.33c.64-10.38,6.14-1.34,16.53-.69S48.43,151.77,47.79,162.16Z"/><path class="cls-10" d="M19.16,135.72c.41,3.08,6.71,8.59,11,3.75,3.66-4.17-2.63-8.44-4.4-9.09S18.17,128.44,19.16,135.72Z"/><path class="cls-10" d="M13.26,140.16c3.07,5.66,7,8.88,10.86,5.33,3-2.54-2.47-9.21-4.4-11.43S10.18,134.51,13.26,140.16Z"/><path class="cls-10" d="M7.69,144c2,4.4,6.12,7.65,9.47,4.15,2.65-2.77-1.38-9.35-3.42-10.89S5.34,138.72,7.69,144Z"/><path class="cls-10" d="M38.66,168.2c.74,1.79-1.11,4.26-4.14,5.51s-6.09.83-6.83-1,2.45-1,5.48-2.28S37.91,166.4,38.66,168.2Z"/><circle class="cls-19" cx="50.39" cy="10.12" r="8.08"/><circle class="cls-19" cx="58.44" cy="35.7" r="6.73"/><circle class="cls-19" cx="48.6" cy="76.09" r="4.04"/><circle class="cls-19" cx="42.67" cy="55.89" r="5.38"/><path class="cls-20" d="M133.07,102.53s15.14,17.91,33.24,11.72c27.45-9.38,19.52-33.76,19.52-33.76s-7,11.05-24.44,17.53S133.07,102.53,133.07,102.53Z"/><path class="cls-6" d="M153.56,42.21h0c3.26,3.5,5.46,10.06,5.46,17.6,0,11.2-4.85,20.29-10.83,20.29a7.43,7.43,0,0,0,5.38,2.7c6,0,10.83-9.09,10.83-20.3S159.54,42.21,153.56,42.21Z"/><ellipse class="cls-12" cx="125.96" cy="58.24" rx="16.48" ry="8.79" transform="translate(55.47 177.78) rotate(-84.29)"/><path class="cls-21" d="M137.58,61c3.66.6,5.86,5.73,4.92,11.46S135.7,93.32,132,92.72,128.33,76,129.27,70.25,133.93,60.35,137.58,61Z"/><line class="cls-20" x1="154.31" y1="100.68" x2="161.39" y2="115.55"/><line class="cls-20" x1="170.7" y1="94.3" x2="176.91" y2="107.92"/><path class="cls-22" d="M42.65,137.77l7.84-37c1.47-.38,2.46-1,2.65-1.91.46-2.19-3.88-4.95-9.7-6.19h-.1c2.62,1.3,4.19,2.88,3.9,4.23-.19.89-1.18,1.53-2.64,1.91L35,98.63l-1.36,3.83c4,3.43,10,3.37,10,3.37L36.35,140c9.68,5.72,14,15,13.07,24.56-1.5,14.76-6.13,19.2-6.13,19.2a26.92,26.92,0,0,0-.64-46Z"/><path class="cls-10" d="M43.89,137.27s-10.58.63-8.73,7.46c1.72,6.33,16.06-.65,16.06-.65Z"/><ellipse class="cls-8" cx="42.6" cy="96.61" rx="4.04" ry="10.77" transform="translate(-60.74 118.27) rotate(-78.04)"/><path class="cls-8" d="M42.65,137.77l7.84-37c1.47-.38,2.46-1,2.65-1.91.46-2.19-3.88-4.95-9.7-6.19s-10.91-.46-11.37,1.72c-.19.89.45,1.88,1.64,2.82l-7.84,37a26.93,26.93,0,1,0,16.78,3.56Z"/><ellipse class="cls-12" cx="153.56" cy="62.5" rx="10.83" ry="20.29"/><ellipse class="cls-8" cx="88.01" cy="195.27" rx="7.86" ry="2.95"/><path class="cls-8" d="M237.16,222V197.32c1.37-.53,2.22-1.25,2.22-2,0-1.63-3.52-3-7.86-3s-7.86,1.32-7.86,3c0,.8.86,1.52,2.23,2V222a17.69,17.69,0,1,0,11.27,0Z"/><ellipse class="cls-8" cx="231.52" cy="195.27" rx="7.86" ry="2.95"/></g></g></g></svg>